# Blender 4.4.0
# www.blender.org
mtllib escri.mtl
o Cube.001
v -2.400000 -2.930000 -1.021490
v -2.400000 -2.930000 1.021490
v -2.400000 -0.050000 1.021490
v -2.400000 -0.050001 -1.021490
v -2.300000 -2.930001 -1.021489
v -2.300000 -2.929999 1.021490
v -2.300000 -0.049999 1.021489
v -2.300000 -0.050000 -1.021490
v 2.400000 -0.050000 -1.033197
v 2.400000 -0.050000 1.033197
v -2.400000 -0.050000 1.033197
v -2.399999 -0.050000 -1.033198
v 2.400001 0.050000 -1.033197
v 2.399998 0.050000 1.033198
v -2.400001 0.050000 1.033197
v -2.400000 0.050000 -1.033197
v 2.300000 -2.930000 -1.021490
v 2.300000 -2.930000 1.021490
v 2.300000 -0.050000 1.021490
v 2.300000 -0.050001 -1.021490
v 2.400000 -2.930001 -1.021489
v 2.400000 -2.929999 1.021490
v 2.400000 -0.049999 1.021489
v 2.400000 -0.050000 -1.021490
v 2.400000 -1.212836 -0.781512
v 2.400000 0.507409 -0.775599
v -2.400000 0.507409 -0.775599
v -2.399999 -1.212836 -0.781512
v 2.400001 -1.212492 -0.881511
v 2.399998 0.507753 -0.875598
v -2.400001 0.507753 -0.875598
v -2.400000 -1.212492 -0.881511
vn -1.0000 -0.0000 -0.0000
vn 1.0000 -0.0000 -0.0000
vn -0.0000 -1.0000 -0.0000
vn -0.0000 -0.0000 1.0000
vn -0.0000 1.0000 -0.0000
vn -0.0000 -0.0000 -1.0000
vn -0.0000 -0.0034 1.0000
vn -0.0000 0.0034 -1.0000
vn -0.0000 1.0000 0.0034
vn -0.0000 -1.0000 -0.0034
vt 0.000000 0.000000
vt 0.481481 0.000000
vt 0.481481 0.392190
vt 0.000000 0.392190
vt 0.962963 0.000000
vt 0.962963 0.392190
vt 0.018519 0.392190
vt 0.037037 0.392190
vt 0.037037 0.746250
vt 0.018519 0.746250
vt 1.000000 0.392190
vt 0.981481 0.392190
vt 0.981481 0.000000
vt 1.000000 0.000000
vt 0.000000 0.746250
vt 0.018518 0.392190
vt 0.472727 0.000000
vt 0.000000 0.688846
vt 0.945454 0.688846
vt 0.945454 0.000000
vt 0.981818 0.373125
vt 1.000000 0.373125
vt 0.963636 0.000000
vt 0.963636 0.688846
vt 1.000000 0.746250
vt 0.981818 0.000000
vt 0.472727 0.688846
vt 0.981818 0.746250
vt 0.981818 0.688846
s 1
usemtl Material.001
f 1/1/1 2/2/1 3/3/1 4/4/1
f 5/5/2 8/6/2 7/3/2 6/2/2
f 1/7/3 5/8/3 6/9/3 2/10/3
f 2/11/4 6/12/4 7/13/4 3/14/4
f 3/10/5 7/15/5 8/4/5 4/16/5
f 5/12/6 1/6/6 4/5/6 8/13/6
f 10/17/3 12/18/3 9/1/3
f 16/19/5 14/17/5 13/20/5
f 13/21/2 10/14/2 9/22/2
f 14/19/4 11/23/4 10/24/4
f 11/25/1 16/21/1 12/22/1
f 9/26/6 16/24/6 13/23/6
f 10/17/3 11/27/3 12/18/3
f 16/19/5 15/27/5 14/17/5
f 13/21/2 14/26/2 10/14/2
f 14/19/4 15/20/4 11/23/4
f 11/25/1 15/28/1 16/21/1
f 9/26/6 12/29/6 16/24/6
f 18/2/1 20/4/1 17/1/1
f 24/6/2 22/2/2 21/5/2
f 21/8/3 18/10/3 17/7/3
f 22/12/4 19/14/4 18/11/4
f 19/10/5 24/4/5 20/16/5
f 17/6/6 24/13/6 21/12/6
f 18/2/1 19/3/1 20/4/1
f 24/6/2 23/3/2 22/2/2
f 21/8/3 22/9/3 18/10/3
f 22/12/4 23/13/4 19/14/4
f 19/10/5 23/15/5 24/4/5
f 17/6/6 20/5/6 24/13/6
f 26/17/7 28/18/7 25/1/7
f 32/19/8 30/17/8 29/20/8
f 29/21/2 26/14/2 25/22/2
f 30/19/9 27/23/9 26/24/9
f 27/25/1 32/21/1 28/22/1
f 25/26/10 32/24/10 29/23/10
f 26/17/7 27/27/7 28/18/7
f 32/19/8 31/27/8 30/17/8
f 29/21/2 30/26/2 26/14/2
f 30/19/9 31/20/9 27/23/9
f 27/25/1 31/28/1 32/21/1
f 25/26/10 28/29/10 32/24/10
o Cube.002
v -2.514787 -2.709143 -1.036896
v -2.514787 -2.709143 -0.234165
v -2.514787 0.517503 -0.234165
v -2.514787 0.517503 -1.036896
v -2.410005 -2.709144 -1.036896
v -2.410005 -2.709142 -0.234164
v -2.410005 0.517504 -0.234165
v -2.410005 0.517503 -1.036896
v -2.410005 -1.235952 -0.891498
v 2.410005 -1.235952 -0.891499
v 2.410004 0.527763 -0.891499
v -2.410006 0.527762 -0.891499
v -2.410003 -1.235953 -1.041498
v 2.410006 -1.235952 -1.041499
v 2.410004 0.527763 -1.041499
v -2.410005 0.527763 -1.041499
v 2.410005 -2.709143 -1.036896
v 2.410005 -2.709143 -0.234165
v 2.410005 0.517503 -0.234165
v 2.410005 0.517503 -1.036896
v 2.514787 -2.709144 -1.036896
v 2.514787 -2.709142 -0.234164
v 2.514787 0.517504 -0.234165
v 2.514787 0.517503 -1.036896
v 2.514787 0.515454 -1.035296
v 2.514787 0.515454 -0.233692
v -2.514787 0.515454 -0.233692
v -2.514786 0.515454 -1.035296
v 2.514788 0.615454 -1.035296
v 2.514786 0.615454 -0.233692
v -2.514788 0.615454 -0.233692
v -2.514787 0.615454 -1.035296
vn -1.0000 -0.0000 -0.0000
vn 1.0000 -0.0000 -0.0000
vn -0.0000 -1.0000 -0.0000
vn -0.0000 -0.0000 1.0000
vn -0.0000 1.0000 -0.0000
vn -0.0000 -0.0000 -1.0000
vt 0.000000 0.000000
vt 0.481481 0.000000
vt 0.481481 0.392190
vt 0.000000 0.392190
vt 0.962963 0.000000
vt 0.962963 0.392190
vt 0.018519 0.392190
vt 0.037037 0.392190
vt 0.037037 0.746250
vt 0.018519 0.746250
vt 1.000000 0.392190
vt 0.981481 0.392190
vt 0.981481 0.000000
vt 1.000000 0.000000
vt 0.000000 0.746250
vt 0.018518 0.392190
vt 0.898876 0.000000
vt 0.898876 0.746250
vt 0.449438 0.746250
vt 0.449438 0.000000
vt 0.966292 0.746250
vt 0.932584 0.746250
vt 0.932584 0.000000
vt 0.966292 0.000000
vt 1.000000 0.324456
vt 0.966292 0.324456
vt 1.000000 0.648913
vt 0.966292 0.648913
vt 0.472727 0.000000
vt 0.472727 0.688846
vt 0.000000 0.688846
vt 0.945454 0.000000
vt 0.945454 0.688846
vt 1.000000 0.373125
vt 0.981818 0.373125
vt 0.981818 0.000000
vt 0.963636 0.688846
vt 0.963636 0.000000
vt 1.000000 0.746250
vt 0.981818 0.746250
vt 0.981818 0.688846
s 1
usemtl Material.002
f 33/30/11 34/31/11 35/32/11 36/33/11
f 37/34/12 40/35/12 39/32/12 38/31/12
f 33/36/13 37/37/13 38/38/13 34/39/13
f 34/40/14 38/41/14 39/42/14 35/43/14
f 35/39/15 39/44/15 40/33/15 36/45/15
f 37/41/16 33/35/16 36/34/16 40/42/16
f 41/46/14 42/47/14 43/48/14 44/49/14
f 45/48/16 48/44/16 47/30/16 46/49/16
f 41/50/13 45/51/13 46/52/13 42/53/13
f 42/53/12 46/43/12 47/54/12 43/55/12
f 43/51/15 47/47/15 48/46/15 44/52/15
f 45/55/11 41/54/11 44/56/11 48/57/11
f 49/30/11 50/31/11 51/32/11 52/33/11
f 53/34/12 56/35/12 55/32/12 54/31/12
f 49/36/13 53/37/13 54/38/13 50/39/13
f 50/40/14 54/41/14 55/42/14 51/43/14
f 51/39/15 55/44/15 56/33/15 52/45/15
f 53/41/16 49/35/16 52/34/16 56/42/16
f 57/30/13 58/58/13 59/59/13 60/60/13
f 61/61/15 64/62/15 63/59/15 62/58/15
f 57/63/12 61/64/12 62/65/12 58/43/12
f 58/66/14 62/62/14 63/61/14 59/67/14
f 59/68/11 63/69/11 64/64/11 60/63/11
f 61/67/16 57/65/16 60/70/16 64/66/16
