# Blender 4.4.0
# www.blender.org
mtllib logoUNAM.mtl
o Cube
v 1.891602 1.588215 -0.080000
v 1.891602 -1.588256 -0.080000
v 1.961446 1.646899 0.080000
v 1.961446 -1.646940 0.080000
v -1.888994 1.588216 -0.080000
v -1.888994 -1.588256 -0.080000
v -1.958839 1.646899 0.080000
v -1.958839 -1.646940 0.080000
v 1.961446 -1.646940 -0.080000
v -1.958839 -1.646940 -0.080000
v 1.961446 1.646899 -0.080000
v -1.958839 1.646899 -0.080000
v 1.891602 1.588215 -0.035698
v 1.891602 -1.588256 -0.035698
v -1.888994 1.588216 -0.035698
v -1.888994 -1.588256 -0.035698
v 0.001304 -1.646940 -0.080000
v 0.001304 1.646899 0.080000
v 0.001304 -1.646940 0.080000
v 0.001304 1.646899 -0.080000
v 0.001304 -1.588256 -0.080000
v 0.001304 1.588216 -0.080000
v 0.001304 -1.588256 -0.035698
v 0.001304 1.588216 -0.035698
v -1.923917 -1.617598 -0.080000
v 1.926524 -1.617598 -0.080000
v 1.926524 1.617557 -0.080000
v -1.923916 1.617558 -0.080000
v 0.001304 1.617557 -0.080000
v 0.001304 -1.617598 -0.080000
v -0.978768 -1.646940 -0.080000
v -0.978767 1.646899 0.080000
v -0.943845 -1.588256 -0.080000
v -0.943845 -1.588256 -0.035698
v -0.978768 -1.646940 0.080000
v -0.978767 1.646899 -0.080000
v -0.943845 1.588216 -0.080000
v -0.943845 1.588216 -0.035698
v -0.961307 -1.617598 -0.080000
v -0.961306 1.617558 -0.080000
v -1.468803 -1.646940 -0.080000
v -1.468803 1.646899 0.080000
v -1.416420 -1.588256 -0.080000
v -1.416420 -1.588256 -0.035698
v -1.442612 -1.617598 -0.080000
v -1.468803 -1.646940 0.080000
v -1.468803 1.646899 -0.080000
v -1.416420 1.588216 -0.080000
v -1.416420 1.588216 -0.035698
v -1.442611 1.617558 -0.080000
v -1.713821 -1.646940 -0.080000
v -1.713821 1.646899 0.080000
v -1.652707 -1.588256 -0.080000
v -1.652707 -1.588256 -0.035698
v -1.683264 -1.617598 -0.080000
v -1.713821 -1.646940 0.080000
v -1.713821 1.646899 -0.080000
v -1.652707 1.588216 -0.080000
v -1.652707 1.588216 -0.035698
v -1.683264 1.617558 -0.080000
v -1.836330 -1.646940 -0.080000
v -1.836330 1.646899 0.080000
v -1.770851 -1.588256 -0.080000
v -1.770851 -1.588256 -0.035698
v -1.803590 -1.617598 -0.080000
v -1.836330 -1.646940 0.080000
v -1.836330 1.646899 -0.080000
v -1.770851 1.588216 -0.080000
v -1.770851 1.588216 -0.035698
v -1.803590 1.617558 -0.080000
v -1.223786 -1.646940 0.080000
v -1.223785 1.646899 -0.080000
v -1.180133 1.588216 -0.080000
v -1.180133 1.588216 -0.035698
v -1.201959 1.617558 -0.080000
v -1.223786 -1.646940 -0.080000
v -1.223785 1.646899 0.080000
v -1.180133 -1.588256 -0.080000
v -1.180133 -1.588256 -0.035698
v -1.201959 -1.617598 -0.080000
v -0.943798 -1.617598 -0.080000
v -0.943750 -1.646940 -0.080000
v -1.652731 -1.617598 -0.080000
v -1.652754 -1.646940 -0.080000
v -0.943798 -1.617598 -0.080000
v -0.943750 -1.646940 -0.080000
v -1.652731 -1.617598 -0.080000
v -1.652754 -1.646940 -0.080000
vn -0.0000 1.0000 -0.0000
vn -0.0000 -0.0000 1.0000
vn -1.0000 -0.0000 -0.0000
vn -0.0000 -1.0000 -0.0000
vn 1.0000 -0.0000 -0.0000
vn -0.0000 -0.0000 -1.0000
vn -0.0000 -0.0000 -0.0000
vt 0.875000 0.500000
vt 0.867188 0.750000
vt 0.867188 0.500000
vt 0.625000 0.992188
vt 0.375000 1.000000
vt 0.375000 0.992188
vt 0.625000 0.000000
vt 0.375000 0.250000
vt 0.375000 0.000000
vt 0.516955 0.463841
vt 0.250000 0.750000
vt 0.250000 0.500000
vt 0.625000 0.500000
vt 0.375000 0.750000
vt 0.375000 0.500000
vt 0.620546 0.495546
vt 0.689946 0.176127
vt 0.687843 0.174118
vt 0.377227 0.497773
vt 0.375000 0.375000
vt 0.377227 0.375000
vt 0.622773 0.497773
vt 0.377227 0.252227
vt 0.625000 0.250000
vt 0.622773 0.252227
vt 0.625000 0.257812
vt 0.622773 0.259900
vt 0.379454 0.495546
vt 0.334239 0.188180
vt 0.761449 0.210260
vt 0.379454 0.254454
vt 0.379454 0.261988
vt 0.379454 0.261988
vt 0.352115 0.314735
vt 0.620546 0.314727
vt 0.379454 0.375000
vt 0.379454 0.314727
vt 0.625000 0.375000
vt 0.673122 0.308701
vt 0.189733 0.500000
vt 0.187500 0.750000
vt 0.625000 0.750000
vt 0.375000 0.875000
vt 0.750000 0.500000
vt 0.379454 0.314727
vt 0.377227 0.314730
vt 0.377227 0.313614
vt 0.622773 0.375000
vt 0.620546 0.261988
vt 0.379454 0.299659
vt 0.377227 0.298267
vt 0.187500 0.500000
vt 0.171875 0.750000
vt 0.171875 0.500000
vt 0.620546 0.299659
vt 0.620546 0.299659
vt 0.379454 0.299659
vt 0.622773 0.313614
vt 0.625000 0.875000
vt 0.375000 0.937500
vt 0.812500 0.500000
vt 0.750000 0.750000
vt 0.620546 0.269522
vt 0.379454 0.284591
vt 0.379454 0.269522
vt 0.377227 0.267574
vt 0.375000 0.269519
vt 0.375000 0.265625
vt 0.699410 0.238388
vt 0.144519 0.500000
vt 0.156250 0.750000
vt 0.140625 0.750000
vt 0.379454 0.269522
vt 0.377227 0.269521
vt 0.622773 0.298267
vt 0.379454 0.284591
vt 0.622773 0.282920
vt 0.625000 0.296875
vt 0.625000 0.953125
vt 0.375000 0.968750
vt 0.375000 0.953125
vt 0.843750 0.500000
vt 0.828125 0.750000
vt 0.828125 0.500000
vt 0.377227 0.259900
vt 0.140625 0.500000
vt 0.132812 0.750000
vt 0.132812 0.500000
vt 0.375000 0.257812
vt 0.622773 0.267574
vt 0.625000 0.281250
vt 0.625000 0.968750
vt 0.375000 0.984375
vt 0.859375 0.500000
vt 0.843750 0.750000
vt 0.620546 0.254454
vt 0.125000 0.750000
vt 0.125000 0.500000
vt 0.625000 0.265625
vt 0.625000 0.984375
vt 0.859375 0.750000
vt 0.812500 0.750000
vt 0.625000 0.937500
vt 0.625000 0.312500
vt 0.620546 0.284591
vt 0.156250 0.500000
vt 0.377227 0.282920
vt 0.375000 0.314733
vt 0.875000 0.750000
vt 0.625000 1.000000
vt 0.506440 0.880573
vt 0.620546 0.375000
s 1
usemtl Material.001
f 12/1/1 62/2/1 67/3/1
f 62/4/2 8/5/2 66/6/2
f 7/7/3 10/8/3 8/9/3
f 9/10/4 19/11/4 17/12/4
f 11/13/5 4/14/5 9/15/5
f 1/16/4 24/17/4 22/18/4
f 26/19/6 17/20/6 30/21/6
f 27/22/6 9/10/6 26/19/6
f 25/23/6 12/24/6 28/25/6
f 28/25/6 67/26/6 70/27/6
f 24/17/6 14/28/6 23/29/6
f 2/28/3 13/16/3 1/16/3
f 5/30/5 16/31/5 6/31/5
f 6/31/1 64/32/1 63/33/1
f 21/34/1 14/28/1 2/28/1
f 38/35/6 23/36/6 34/37/6
f 27/22/6 20/38/6 11/13/6
f 22/18/4 38/35/4 37/39/4
f 82/40/4 19/11/4 35/41/4
f 3/42/2 19/43/2 4/14/2
f 20/44/1 3/42/1 11/13/1
f 33/45/6 81/46/6 39/47/6
f 1/16/6 29/48/6 27/22/6
f 5/30/6 70/27/6 68/49/6
f 6/31/6 28/25/6 5/30/6
f 1/16/6 26/19/6 2/28/6
f 2/28/6 30/21/6 21/34/6
f 37/39/6 29/48/6 22/18/6
f 78/50/6 39/47/6 80/51/6
f 31/52/4 71/53/4 76/54/4
f 37/39/4 74/55/4 73/56/4
f 74/55/6 34/37/6 79/57/6
f 33/45/1 23/36/1 21/36/1
f 40/58/6 20/38/6 29/48/6
f 18/59/2 35/60/2 19/43/2
f 36/61/1 18/62/1 20/44/1
f 59/63/6 44/64/6 54/65/6
f 55/66/6 84/67/6 51/68/6
f 48/69/4 59/63/4 58/63/4
f 84/70/4 46/71/4 56/72/4
f 53/73/6 83/74/6 55/66/6
f 48/69/6 75/75/6 73/56/6
f 43/76/1 79/57/1 78/50/1
f 50/77/6 72/78/6 75/75/6
f 77/79/2 46/80/2 71/81/2
f 47/82/1 77/83/1 72/84/1
f 63/33/6 55/66/6 65/85/6
f 51/86/4 66/87/4 61/88/4
f 58/63/4 69/49/4 68/49/4
f 65/85/6 51/68/6 61/89/6
f 69/49/6 54/65/6 64/32/6
f 58/63/6 50/77/6 48/69/6
f 53/73/1 44/64/1 43/76/1
f 60/90/6 47/91/6 50/77/6
f 42/92/2 56/93/2 46/80/2
f 57/94/1 42/95/1 47/82/1
f 15/96/6 64/32/6 16/31/6
f 25/23/6 61/89/6 10/8/6
f 68/49/4 15/96/4 5/30/4
f 61/88/4 8/97/4 10/98/4
f 6/31/6 65/85/6 25/23/6
f 68/49/6 60/90/6 58/63/6
f 63/33/1 54/65/1 53/73/1
f 70/27/6 57/99/6 60/90/6
f 52/100/2 66/6/2 56/93/2
f 67/3/1 52/101/1 57/94/1
f 72/84/1 32/102/1 36/61/1
f 32/103/2 71/81/2 35/60/2
f 75/75/6 36/104/6 40/58/6
f 78/50/1 34/37/1 33/45/1
f 73/56/6 40/58/6 37/39/6
f 49/105/6 79/57/6 44/64/6
f 73/56/4 49/105/4 48/69/4
f 76/54/4 46/71/4 41/106/4
f 43/76/6 80/51/6 45/107/6
f 84/67/7 87/74/7 83/74/7
f 82/108/6 30/21/6 17/20/6
f 81/46/6 21/36/6 30/21/6
f 53/73/6 45/107/6 83/74/6
f 82/108/7 85/46/7 81/46/7
f 12/1/1 7/109/1 62/2/1
f 62/4/2 7/110/2 8/5/2
f 7/7/3 12/24/3 10/8/3
f 9/10/4 4/111/4 19/11/4
f 11/13/5 3/42/5 4/14/5
f 1/16/4 13/16/4 24/17/4
f 26/19/6 9/10/6 17/20/6
f 27/22/6 11/13/6 9/10/6
f 25/23/6 10/8/6 12/24/6
f 28/25/6 12/24/6 67/26/6
f 24/17/6 13/16/6 14/28/6
f 2/28/3 14/28/3 13/16/3
f 5/30/5 15/96/5 16/31/5
f 6/31/1 16/31/1 64/32/1
f 21/34/1 23/29/1 14/28/1
f 38/35/6 24/112/6 23/36/6
f 27/22/6 29/48/6 20/38/6
f 22/18/4 24/17/4 38/35/4
f 35/41/4 31/52/4 82/40/4
f 82/40/4 17/12/4 19/11/4
f 3/42/2 18/59/2 19/43/2
f 20/44/1 18/62/1 3/42/1
f 1/16/6 22/18/6 29/48/6
f 5/30/6 28/25/6 70/27/6
f 6/31/6 25/23/6 28/25/6
f 1/16/6 27/22/6 26/19/6
f 2/28/6 26/19/6 30/21/6
f 37/39/6 40/58/6 29/48/6
f 78/50/6 33/45/6 39/47/6
f 31/52/4 35/41/4 71/53/4
f 37/39/4 38/35/4 74/55/4
f 74/55/6 38/35/6 34/37/6
f 33/45/1 34/37/1 23/36/1
f 40/58/6 36/104/6 20/38/6
f 18/59/2 32/103/2 35/60/2
f 36/61/1 32/102/1 18/62/1
f 59/63/6 49/105/6 44/64/6
f 55/66/6 83/74/6 84/67/6
f 48/69/4 49/105/4 59/63/4
f 56/72/4 51/86/4 84/70/4
f 84/70/4 41/106/4 46/71/4
f 48/69/6 50/77/6 75/75/6
f 43/76/1 44/64/1 79/57/1
f 50/77/6 47/91/6 72/78/6
f 77/79/2 42/92/2 46/80/2
f 47/82/1 42/95/1 77/83/1
f 63/33/6 53/73/6 55/66/6
f 51/86/4 56/72/4 66/87/4
f 58/63/4 59/63/4 69/49/4
f 65/85/6 55/66/6 51/68/6
f 69/49/6 59/63/6 54/65/6
f 58/63/6 60/90/6 50/77/6
f 53/73/1 54/65/1 44/64/1
f 60/90/6 57/99/6 47/91/6
f 42/92/2 52/100/2 56/93/2
f 57/94/1 52/101/1 42/95/1
f 15/96/6 69/49/6 64/32/6
f 25/23/6 65/85/6 61/89/6
f 68/49/4 69/49/4 15/96/4
f 61/88/4 66/87/4 8/97/4
f 6/31/6 63/33/6 65/85/6
f 68/49/6 70/27/6 60/90/6
f 63/33/1 64/32/1 54/65/1
f 70/27/6 67/26/6 57/99/6
f 52/100/2 62/4/2 66/6/2
f 67/3/1 62/2/1 52/101/1
f 72/84/1 77/83/1 32/102/1
f 32/103/2 77/79/2 71/81/2
f 75/75/6 72/78/6 36/104/6
f 78/50/1 79/57/1 34/37/1
f 73/56/6 75/75/6 40/58/6
f 49/105/6 74/55/6 79/57/6
f 73/56/4 74/55/4 49/105/4
f 76/54/4 71/53/4 46/71/4
f 43/76/6 78/50/6 80/51/6
f 84/67/7 88/67/7 87/74/7
f 82/108/6 81/46/6 30/21/6
f 81/46/6 33/45/6 21/36/6
f 53/73/6 43/76/6 45/107/6
f 82/108/7 86/108/7 85/46/7
o Plano
v 1.895485 -1.572186 -0.043708
v -1.883048 -1.572186 -0.043708
v 1.895485 1.573060 -0.043708
v -1.883047 1.573060 -0.043708
vn -0.0000 -0.0000 -1.0000
vt 1.000000 0.000000
vt 0.000000 1.000000
vt 0.000000 0.000000
vt 1.000000 1.000000
s 0
usemtl Material.004
f 90/113/8 91/114/8 89/115/8
f 90/113/8 92/116/8 91/114/8
