# Blender 4.4.3
# www.blender.org
mtllib pizarra2.mtl
o Cube
v 12.054595 75.890808 -0.849999
v -12.054595 75.890808 -0.849999
v 12.500000 75.000000 0.850001
v -12.500000 75.000000 0.850001
v 12.054595 124.109192 -0.850001
v -12.054595 124.109192 -0.850001
v 12.500000 125.000000 0.849999
v -12.500000 125.000000 0.849999
v -12.500000 75.000000 -0.849999
v -12.500000 125.000000 -0.850001
v 12.500000 75.000000 -0.849999
v 12.500000 125.000000 -0.850001
v 12.054595 75.890808 -0.379293
v -12.054595 75.890808 -0.379293
v 12.054595 124.109192 -0.379295
v -12.054595 124.109192 -0.379295
v -12.500000 100.000000 -0.850000
v 12.500000 100.000000 0.850000
v -12.500000 100.000000 0.850000
v 12.500000 100.000000 -0.850000
v -12.054595 100.000000 -0.850000
v 12.054595 100.000000 -0.850000
v -12.054595 100.000000 -0.379294
v 12.054595 100.000000 -0.379294
v -12.277298 124.554596 -0.850001
v -12.277298 75.445404 -0.849999
v 12.277298 75.445404 -0.849999
v 12.277298 124.554596 -0.850001
v 12.277298 100.000000 -0.850000
v -12.277298 100.000000 -0.850000
v -12.500000 112.500000 -0.850001
v 12.500000 112.500000 0.849999
v -12.054595 112.054596 -0.850001
v -12.054595 112.054596 -0.379294
v -12.500000 112.500000 0.849999
v 12.500000 112.500000 -0.850001
v 12.054595 112.054596 -0.850001
v 12.054595 112.054596 -0.379294
v -12.277298 112.277298 -0.850001
v 12.277298 112.277298 -0.850001
v -12.500000 118.750000 -0.850001
v 12.500000 118.750000 0.849999
v -12.054595 118.081894 -0.850001
v -12.054595 118.081894 -0.379294
v -12.277298 118.415947 -0.850001
v -12.500000 118.750000 0.849999
v 12.500000 118.750000 -0.850001
v 12.054595 118.081894 -0.850001
v 12.054595 118.081894 -0.379294
v 12.277298 118.415947 -0.850001
v -12.500000 121.875000 -0.850001
v 12.500000 121.875000 0.849999
v -12.054595 121.095543 -0.850001
v -12.054595 121.095543 -0.379295
v -12.277298 121.485275 -0.850001
v -12.500000 121.875000 0.849999
v 12.500000 121.875000 -0.850001
v 12.054595 121.095543 -0.850001
v 12.054595 121.095543 -0.379295
v 12.277298 121.485275 -0.850001
v -12.500000 123.437500 -0.850001
v 12.500000 123.437500 0.849999
v -12.054595 122.602364 -0.850001
v -12.054595 122.602364 -0.379295
v -12.277298 123.019936 -0.850001
v -12.500000 123.437500 0.849999
v 12.500000 123.437500 -0.850001
v 12.054595 122.602364 -0.850001
v 12.054595 122.602364 -0.379295
v 12.277298 123.019936 -0.850001
v -12.500000 115.625000 0.849999
v 12.500000 115.625000 -0.850001
v 12.054595 115.068245 -0.850001
v 12.054595 115.068245 -0.379294
v 12.277298 115.346619 -0.850001
v -12.500000 115.625000 -0.850001
v 12.500000 115.625000 0.849999
v -12.054595 115.068245 -0.850001
v -12.054595 115.068245 -0.379294
v -12.277298 115.346619 -0.850001
v -12.277298 112.053986 -0.850001
v -12.500000 112.053375 -0.850001
v -12.277298 121.095840 -0.850001
v -12.500000 121.096146 -0.850001
v -12.277298 112.053986 -0.850001
v -12.500000 112.053375 -0.850001
v -12.277298 121.095840 -0.850001
v -12.500000 121.096146 -0.850001
v -12.500000 112.053375 -2.937589
v -12.500000 112.500000 -2.937589
v -12.277298 112.053986 -2.937589
v -12.277298 112.277298 -2.937589
v -12.500000 115.625000 -2.937589
v -12.500000 118.750000 -2.937589
v -12.277298 115.346619 -2.937589
v -12.277298 118.415947 -2.937589
v -12.277298 121.095840 -2.937589
v -12.500000 121.096146 -2.937589
v -12.500000 112.053375 -3.416245
v -12.500000 112.500000 -3.416245
v -12.277298 112.053986 -3.416245
v -12.277298 112.277298 -3.416245
v -12.500000 115.625000 -3.416245
v -12.500000 118.750000 -3.416245
v -12.277298 115.346619 -3.416245
v -12.277298 118.415947 -3.416245
v -12.277298 121.095840 -3.416245
v -12.500000 121.096146 -3.416245
v -11.668986 112.053986 -2.937589
v -11.668986 112.277298 -2.937589
v -11.668986 115.346619 -2.937589
v -11.668986 118.415947 -2.937589
v -11.668986 118.415947 -3.416245
v -11.668986 115.346619 -3.416245
v -11.668986 121.095840 -2.937589
v -11.668986 112.053986 -3.416245
v -11.668986 112.277298 -3.416245
v -11.668986 121.095840 -3.416245
vn 1.0000 -0.0000 -0.0000
vn -0.0000 -0.0000 1.0000
vn -0.0000 1.0000 -0.0000
vn -1.0000 -0.0000 -0.0000
vn -0.0000 -1.0000 -0.0000
vn -0.0000 -0.0000 -1.0000
vn 0.0027 -1.0000 -0.0000
vn 0.0018 -1.0000 -0.0000
vn -0.0000 -0.0000 -0.0000
vn 0.0013 1.0000 -0.0000
vn 0.0009 1.0000 -0.0000
vn 0.0007 1.0000 -0.0000
vn 0.0014 -1.0000 -0.0000
vt 0.867188 0.500000
vt 0.875000 0.500000
vt 0.875000 0.750000
vt 0.867188 0.750000
vt 0.375000 0.992188
vt 0.625000 0.992188
vt 0.625000 1.000000
vt 0.375000 1.000000
vt 0.375000 0.000000
vt 0.625000 0.000000
vt 0.625000 0.250000
vt 0.375000 0.250000
vt 0.250000 0.500000
vt 0.375000 0.500000
vt 0.375000 0.750000
vt 0.250000 0.750000
vt 0.625000 0.500000
vt 0.625000 0.750000
vt 0.620546 0.375000
vt 0.620546 0.495546
vt 0.377227 0.375000
vt 0.377227 0.497773
vt 0.375000 0.375000
vt 0.622773 0.497773
vt 0.622773 0.252227
vt 0.377227 0.252227
vt 0.622773 0.259900
vt 0.625000 0.257812
vt 0.379454 0.375000
vt 0.379454 0.495546
vt 0.379454 0.254454
vt 0.620546 0.254454
vt 0.379454 0.261988
vt 0.379454 0.261988
vt 0.379454 0.314727
vt 0.620546 0.314727
vt 0.622773 0.375000
vt 0.625000 0.375000
vt 0.377227 0.282920
vt 0.377227 0.298267
vt 0.620546 0.314727
vt 0.187500 0.500000
vt 0.189733 0.500000
vt 0.187500 0.750000
vt 0.625000 0.875000
vt 0.375000 0.875000
vt 0.750000 0.500000
vt 0.750000 0.750000
vt 0.379454 0.314727
vt 0.377227 0.314730
vt 0.377227 0.313614
vt 0.620546 0.261988
vt 0.622773 0.313614
vt 0.379454 0.299659
vt 0.171875 0.500000
vt 0.171875 0.750000
vt 0.620546 0.299659
vt 0.620546 0.299659
vt 0.375000 0.314733
vt 0.379454 0.299659
vt 0.625000 0.312500
vt 0.625000 0.937500
vt 0.375000 0.937500
vt 0.812500 0.500000
vt 0.812500 0.750000
vt 0.379454 0.269522
vt 0.620546 0.269522
vt 0.620546 0.284591
vt 0.379454 0.284591
vt 0.377227 0.267574
vt 0.377227 0.269521
vt 0.375000 0.269519
vt 0.375000 0.265625
vt 0.140625 0.500000
vt 0.144519 0.500000
vt 0.156250 0.500000
vt 0.156250 0.750000
vt 0.140625 0.750000
vt 0.379454 0.269522
vt 0.622773 0.282920
vt 0.622773 0.298267
vt 0.379454 0.284591
vt 0.625000 0.281250
vt 0.625000 0.296875
vt 0.375000 0.953125
vt 0.625000 0.953125
vt 0.625000 0.968750
vt 0.375000 0.968750
vt 0.828125 0.500000
vt 0.843750 0.500000
vt 0.843750 0.750000
vt 0.828125 0.750000
vt 0.377227 0.259900
vt 0.132812 0.500000
vt 0.132812 0.750000
vt 0.375000 0.257812
vt 0.622773 0.267574
vt 0.625000 0.265625
vt 0.625000 0.984375
vt 0.375000 0.984375
vt 0.859375 0.500000
vt 0.859375 0.750000
vt 0.125000 0.500000
vt 0.125000 0.750000
vt 0.375000 0.312500
vt 0.375000 0.296875
vt 0.375000 0.281250
s 1
usemtl Material.001
f 67/1/1 12/2/1 7/3/1 62/4/1
f 66/5/2 62/6/2 7/7/2 8/8/2
f 8/9/3 7/10/3 12/11/3 10/12/3
f 17/13/4 9/14/4 4/15/4 19/16/4
f 9/14/5 11/17/5 3/18/5 4/15/5
f 22/19/4 1/20/4 13/20/4 24/19/4
f 30/21/6 26/22/6 9/14/6 17/23/6
f 26/22/6 27/24/6 11/17/6 9/14/6
f 28/25/6 25/26/6 10/12/6 12/11/6
f 70/27/6 28/25/6 12/11/6 67/28/6
f 23/29/6 24/19/6 13/20/6 14/30/6
f 1/20/3 2/30/3 14/30/3 13/20/3
f 6/31/5 5/32/5 15/32/5 16/31/5
f 63/33/1 6/31/1 16/31/1 64/34/1
f 2/30/1 21/29/1 23/29/1 14/30/1
f 34/35/6 38/36/6 24/19/6 23/29/6
f 27/24/6 29/37/6 20/38/6 11/17/6
f 45/39/1 80/40/1 95/40/1 96/39/1
f 37/41/4 22/19/4 24/19/4 38/36/4
f 31/42/4 82/43/4 17/13/4 19/16/4 35/44/4
f 4/15/2 3/18/2 18/45/2 19/46/2
f 11/17/1 20/47/1 18/48/1 3/18/1
f 33/49/6 81/50/6 39/51/6
f 1/20/6 22/19/6 29/37/6 27/24/6
f 68/52/6 5/32/6 28/25/6 70/27/6
f 5/32/6 6/31/6 25/26/6 28/25/6
f 2/30/6 1/20/6 27/24/6 26/22/6
f 21/29/6 2/30/6 26/22/6 30/21/6
f 22/19/6 37/41/6 40/53/6 29/37/6
f 78/54/6 33/49/6 39/51/6 80/40/6
f 76/55/4 31/42/4 35/44/4 71/56/4
f 73/57/4 37/41/4 38/36/4 74/58/4
f 81/50/7 82/59/7 89/59/7 91/50/8
f 79/60/6 74/58/6 38/36/6 34/35/6
f 21/29/1 33/49/1 34/35/1 23/29/1
f 29/37/6 40/53/6 36/61/6 20/38/6
f 19/46/2 18/45/2 32/62/2 35/63/2
f 20/47/1 36/64/1 32/65/1 18/48/1
f 54/66/6 59/67/6 49/68/6 44/69/6
f 55/70/6 83/71/6 84/72/6 51/73/6
f 58/67/4 48/68/4 49/68/4 59/67/4
f 51/74/4 84/75/4 41/76/4 46/77/4 56/78/4
f 53/79/6 83/71/6 55/70/6
f 73/57/6 48/68/6 50/80/6 75/81/6
f 78/54/1 43/82/1 44/69/1 79/60/1
f 75/81/6 50/80/6 47/83/6 72/84/6
f 71/85/2 77/86/2 42/87/2 46/88/2
f 72/89/1 47/90/1 42/91/1 77/92/1
f 63/33/6 53/79/6 55/70/6 65/93/6
f 61/94/4 51/74/4 56/78/4 66/95/4
f 68/52/4 58/67/4 59/67/4 69/52/4
f 65/93/6 55/70/6 51/73/6 61/96/6
f 64/34/6 69/52/6 59/67/6 54/66/6
f 48/68/6 58/67/6 60/97/6 50/80/6
f 43/82/1 53/79/1 54/66/1 44/69/1
f 50/80/6 60/97/6 57/98/6 47/83/6
f 46/88/2 42/87/2 52/99/2 56/100/2
f 47/90/1 57/101/1 52/102/1 42/91/1
f 16/31/6 15/32/6 69/52/6 64/34/6
f 25/26/6 65/93/6 61/96/6 10/12/6
f 5/32/4 68/52/4 69/52/4 15/32/4
f 10/103/4 61/94/4 66/95/4 8/104/4
f 6/31/6 63/33/6 65/93/6 25/26/6
f 58/67/6 68/52/6 70/27/6 60/97/6
f 53/79/1 63/33/1 64/34/1 54/66/1
f 60/97/6 70/27/6 67/28/6 57/98/6
f 56/100/2 52/99/2 62/6/2 66/5/2
f 57/101/1 67/1/1 62/4/1 52/102/1
f 36/64/1 72/89/1 77/92/1 32/65/1
f 35/63/2 32/62/2 77/86/2 71/85/2
f 40/53/6 75/81/6 72/84/6 36/61/6
f 33/49/1 78/54/1 79/60/1 34/35/1
f 37/41/6 73/57/6 75/81/6 40/53/6
f 44/69/6 49/68/6 74/58/6 79/60/6
f 31/42/4 76/55/4 93/55/4 90/42/4
f 48/68/4 73/57/4 74/58/4 49/68/4
f 41/76/4 76/55/4 71/56/4 46/77/4
f 43/82/6 78/54/6 80/40/6 45/39/6
f 83/71/9 84/72/9 88/72/9 87/71/9
f 82/59/6 81/50/6 30/21/6 17/23/6
f 81/50/6 33/49/6 21/29/6 30/21/6
f 83/71/6 53/79/6 43/82/6 45/39/6
f 82/43/4 31/42/4 90/42/4 89/43/4
f 81/50/9 82/59/9 86/59/9 85/50/9
f 98/72/10 97/71/11 107/71/12 108/72/10
f 107/71/12 97/71/11 115/71/3 118/71/3
f 94/76/4 98/75/4 108/75/4 104/76/4
f 92/51/2 91/50/2 109/50/2 110/51/2
f 80/40/1 39/51/1 92/51/1 95/40/1
f 39/51/1 81/50/1 91/50/1 92/51/1
f 84/72/10 83/71/10 97/71/11 98/72/10
f 83/71/1 45/39/1 96/39/1 97/71/1
f 41/76/4 84/75/4 98/75/4 94/76/4
f 76/55/4 41/76/4 94/76/4 93/55/4
f 102/51/6 101/50/6 99/59/6 100/105/6
f 105/40/6 102/51/6 100/105/6 103/106/6
f 106/39/6 105/40/6 103/106/6 104/107/6
f 108/72/6 107/71/6 106/39/6 104/107/6
f 91/50/8 89/59/7 99/59/7 101/50/13
f 90/42/4 93/55/4 103/55/4 100/42/4
f 93/55/4 94/76/4 104/76/4 103/55/4
f 101/50/6 102/51/6 117/51/6 116/50/6
f 89/43/4 90/42/4 100/42/4 99/43/4
f 96/39/2 95/40/2 111/40/2 112/39/2
f 110/51/1 109/50/1 116/50/1 117/51/1
f 112/39/1 111/40/1 114/40/1 113/39/1
f 115/71/1 112/39/1 113/39/1 118/71/1
f 111/40/1 110/51/1 117/51/1 114/40/1
f 106/39/6 107/71/6 118/71/6 113/39/6
f 102/51/6 105/40/6 114/40/6 117/51/6
f 97/71/2 96/39/2 112/39/2 115/71/2
f 91/50/8 101/50/13 116/50/5 109/50/5
f 95/40/2 92/51/2 110/51/2 111/40/2
f 105/40/6 106/39/6 113/39/6 114/40/6
